<svg xmlns="http://www.w3.org/2000/svg" viewBox="0 0 687 630"><defs><style>.cls-1,.cls-18,.cls-20,.cls-24,.cls-25,.cls-28,.cls-29,.cls-30,.cls-31,.cls-32,.cls-35,.cls-36,.cls-37,.cls-39,.cls-40,.cls-41,.cls-42,.cls-43,.cls-44,.cls-45,.cls-46,.cls-47,.cls-48,.cls-7{fill:none;stroke-miterlimit:10;}.cls-1,.cls-18,.cls-20,.cls-24,.cls-29,.cls-30,.cls-31,.cls-32,.cls-7{stroke:#4c6dfe;}.cls-1,.cls-25,.cls-28,.cls-35,.cls-36,.cls-37,.cls-39,.cls-40,.cls-41,.cls-42,.cls-43,.cls-44,.cls-45,.cls-46,.cls-47,.cls-48{stroke-width:0.75px;}.cls-2{font-size:14.42px;font-family:Raleway-Bold, Raleway;font-weight:700;}.cls-11,.cls-2,.cls-33,.cls-4{fill:#fff;}.cls-3{letter-spacing:0em;}.cls-11,.cls-25,.cls-4{font-size:11.79px;}.cls-11,.cls-25,.cls-33,.cls-4{font-family:Raleway-Regular, Raleway;}.cls-5{letter-spacing:-0.02em;}.cls-11,.cls-6{letter-spacing:-0.01em;}.cls-7{stroke-width:0.72px;}.cls-8{letter-spacing:0em;}.cls-9{letter-spacing:-0.02em;}.cls-10{letter-spacing:-0.02em;}.cls-12{letter-spacing:0em;}.cls-13{letter-spacing:0em;}.cls-14{letter-spacing:-0.03em;}.cls-15{letter-spacing:0em;}.cls-16{letter-spacing:-0.03em;}.cls-17{letter-spacing:-0.01em;}.cls-18{stroke-width:0.66px;}.cls-19{letter-spacing:0em;}.cls-20{stroke-width:0.68px;}.cls-21{letter-spacing:-0.01em;}.cls-22{letter-spacing:-0.02em;}.cls-23{letter-spacing:-0.01em;}.cls-24{stroke-width:0.67px;}.cls-25{stroke:#fff;}.cls-26{letter-spacing:-0.01em;}.cls-27{letter-spacing:-0.01em;}.cls-28,.cls-45,.cls-46,.cls-47,.cls-48{stroke:#00d0cd;}.cls-28{stroke-dasharray:21.89;}.cls-29{stroke-width:1.01px;}.cls-30{stroke-width:0.96px;}.cls-31{stroke-width:0.92px;}.cls-32{stroke-width:0.57px;}.cls-33{font-size:8.56px;}.cls-34{letter-spacing:-0.01em;}.cls-35,.cls-36,.cls-37,.cls-39,.cls-40,.cls-41,.cls-42,.cls-43,.cls-44{stroke:#d0de00;}.cls-36{stroke-dasharray:8.86 8.86;}.cls-37{stroke-dasharray:9.59 9.59;}.cls-38{fill:#d0de00;}.cls-39{stroke-dasharray:6.54 6.54;}.cls-40{stroke-dasharray:6.53 6.53;}.cls-41{stroke-dasharray:9.75 9.75;}.cls-42{stroke-dasharray:9.72 9.72;}.cls-43{stroke-dasharray:4.08 4.08;}.cls-44{stroke-dasharray:4.13 4.13;}.cls-46{stroke-dasharray:20.51 20.51;}.cls-47{stroke-dasharray:24.44 24.44;}.cls-48{stroke-dasharray:24.68 24.68;}.cls-49{fill:#00d0cd;}</style></defs><g id="Capa_2" data-name="Capa 2"><rect class="cls-1" x="244.41" y="17.95" width="141.79" height="37.34" rx="18.67"/><text class="cls-2" transform="translate(296.04 41.3)"><tspan class="cls-3">L</tspan><tspan x="8.36" y="0">og in</tspan></text><rect class="cls-1" x="258.13" y="85.95" width="114.13" height="40.73" rx="20.36"/><text class="cls-4" transform="translate(296.88 109.78)">P<tspan class="cls-5" x="7.34" y="0">r</tspan><tspan class="cls-6" x="11.29" y="0">o</tspan><tspan x="18.2" y="0">file</tspan></text><rect class="cls-7" x="15.85" y="255.49" width="103.78" height="40.73" rx="19.42"/><text class="cls-4" transform="translate(47.11 279.31)">Dis<tspan class="cls-8" x="16.7" y="0">c</tspan><tspan class="cls-9" x="23.12" y="0">ov</tspan><tspan x="36" y="0">e</tspan><tspan class="cls-10" x="42.92" y="0">r</tspan></text><rect class="cls-1" x="15.85" y="325.24" width="114.13" height="40.73" rx="20.36"/><text class="cls-11" transform="translate(57.61 349.07)">St<tspan class="cls-12" x="10.9" y="0">o</tspan><tspan class="cls-5" x="17.92" y="0">r</tspan><tspan class="cls-13" x="21.87" y="0">e</tspan></text><rect class="cls-1" x="15.85" y="390.5" width="152.54" height="40.73" rx="20.36"/><text class="cls-4" transform="translate(40.35 414.32)">M<tspan class="cls-14" x="10.34" y="0">y</tspan><tspan class="cls-12" x="16.42" y="0" xml:space="preserve"> g</tspan><tspan class="cls-15" x="26.71" y="0">r</tspan><tspan x="30.83" y="0">a</tspan><tspan class="cls-8" x="37.26" y="0">n</tspan><tspan class="cls-6" x="44.08" y="0">t</tspan><tspan x="47.92" y="0">ed</tspan><tspan class="cls-16" x="62.18" y="0"> </tspan><tspan class="cls-12" x="64.86" y="0">wishes</tspan></text><rect class="cls-1" x="15.85" y="455.76" width="114.13" height="40.73" rx="20.36"/><text class="cls-4" transform="translate(38.85 479.58)">Co<tspan class="cls-17" x="15.11" y="0">n</tspan><tspan x="21.92" y="0">tributions</tspan></text><rect class="cls-18" x="22.6" y="517.26" width="89.53" height="40.73" rx="18.04"/><text class="cls-4" transform="translate(47.11 541.09) scale(0.98 1)">Whall<tspan class="cls-19" x="32.06" y="0">e</tspan><tspan x="38.92" y="0">t</tspan></text><rect class="cls-20" x="22.6" y="574.27" width="94.78" height="40.73" rx="18.56"/><text class="cls-4" transform="translate(47.11 598.09)">S<tspan class="cls-8" x="7.16" y="0">e</tspan><tspan x="14.02" y="0">ttings</tspan></text><rect class="cls-1" x="566.29" y="178.21" width="114.13" height="40.73" rx="20.36"/><text class="cls-4" transform="translate(588.54 202.04)">Co<tspan class="cls-17" x="15.11" y="0">n</tspan><tspan x="21.92" y="0">tributions</tspan></text><rect class="cls-1" x="245.91" y="177.46" width="93.04" height="40.73" rx="20.36"/><text class="cls-4" transform="translate(271.16 201.29)">Wishlist</text><rect class="cls-1" x="136.4" y="177.46" width="93.04" height="40.73" rx="20.36"/><text class="cls-4" transform="translate(153.37 201.29)"><tspan class="cls-21">E</tspan><tspan x="7.01" y="0">dit p</tspan><tspan class="cls-22" x="31.15" y="0">r</tspan><tspan class="cls-23" x="35.1" y="0">o</tspan><tspan x="42.01" y="0">file</tspan></text><rect class="cls-24" x="360.09" y="177.46" width="91.08" height="40.73" rx="18.19"/><text class="cls-4" transform="translate(385.34 201.29)">Thanks</text><rect class="cls-1" x="473.35" y="177.46" width="74.11" height="40.73" rx="20.36"/><text class="cls-25" transform="translate(487.36 201.29)"><tspan class="cls-5">R</tspan><tspan class="cls-26" x="7.51" y="0">e</tspan><tspan x="14.27" y="0">vi</tspan><tspan class="cls-26" x="23.13" y="0">e</tspan><tspan class="cls-27" x="29.89" y="0">w</tspan><tspan x="39.32" y="0">s</tspan></text><line class="cls-28" x1="70.5" y1="103.47" x2="256.52" y2="103.47"/><line class="cls-29" x1="178.51" y1="158.23" x2="621.81" y2="158.23"/><line class="cls-28" x1="70.79" y1="103.44" x2="70.79" y2="255.36"/><line class="cls-1" x1="622.1" y1="158.95" x2="622.1" y2="178.08"/><line class="cls-1" x1="292.81" y1="158.95" x2="292.81" y2="178.08"/><line class="cls-30" x1="308.57" y1="126.7" x2="308.57" y2="157.85"/><line class="cls-1" x1="178.8" y1="158.95" x2="178.8" y2="178.08"/><line class="cls-1" x1="406.08" y1="158.95" x2="406.08" y2="178.08"/><line class="cls-31" x1="315.32" y1="55.44" x2="315.32" y2="84.34"/><line class="cls-1" x1="508.84" y1="158.95" x2="508.84" y2="178.08"/><line class="cls-28" x1="70.13" y1="296.62" x2="70.13" y2="325.12"/><line class="cls-28" x1="70.13" y1="366.37" x2="70.13" y2="390.38"/><line class="cls-28" x1="70.13" y1="430.88" x2="70.13" y2="455.63"/><line class="cls-28" x1="70.13" y1="496.14" x2="70.13" y2="517.14"/><line class="cls-32" x1="70.13" y1="557.64" x2="70.13" y2="574.15"/><text class="cls-33" transform="translate(79.01 99.39)"><tspan class="cls-34">M</tspan><tspan x="7.44" y="0">enu</tspan></text><line class="cls-35" x1="109.51" y1="606.64" x2="114.33" y2="606.64"/><line class="cls-36" x1="123.18" y1="606.64" x2="171.91" y2="606.64"/><polyline class="cls-35" points="176.34 606.64 181.16 606.64 181.16 601.82"/><polyline class="cls-37" points="181.16 592.23 181.16 505.36 182.92 232.75"/><line class="cls-35" x1="182.96" y1="227.95" x2="182.99" y2="223.13"/><path class="cls-38" d="M183,218.61a22.52,22.52,0,0,0,3.52,6.43L183,223.73,179.41,225A22.89,22.89,0,0,0,183,218.61Z"/><line class="cls-35" x1="168.39" y1="406.13" x2="171.74" y2="406.13"/><line class="cls-39" x1="178.28" y1="406.13" x2="397.31" y2="406.13"/><polyline class="cls-35" points="400.58 406.13 403.93 406.13 403.93 402.78"/><polyline class="cls-40" points="403.93 396.25 403.93 357.19 405.64 229.75"/><line class="cls-35" x1="405.68" y1="226.48" x2="405.73" y2="223.13"/><path class="cls-38" d="M405.79,218.61a22.58,22.58,0,0,0,3.48,6.46l-3.55-1.34L402.14,225A22.68,22.68,0,0,0,405.79,218.61Z"/><line class="cls-35" x1="127.13" y1="479.64" x2="132.05" y2="479.64"/><line class="cls-41" x1="141.8" y1="479.64" x2="624.53" y2="479.64"/><polyline class="cls-35" points="629.4 479.64 634.32 479.64 634.37 474.72"/><line class="cls-42" x1="634.46" y1="465" x2="636.68" y2="236.66"/><line class="cls-35" x1="636.72" y1="231.8" x2="636.77" y2="226.88"/><path class="cls-38" d="M636.81,222.36a22.66,22.66,0,0,0,3.51,6.44l-3.56-1.32-3.57,1.25A22.66,22.66,0,0,0,636.81,222.36Z"/><line class="cls-35" x1="127.13" y1="346.87" x2="129.15" y2="346.87"/><line class="cls-43" x1="133.23" y1="346.87" x2="294.38" y2="346.87"/><polyline class="cls-35" points="296.42 346.87 298.44 346.87 298.45 344.86"/><line class="cls-44" x1="298.47" y1="340.73" x2="299.22" y2="227.22"/><line class="cls-35" x1="299.24" y1="225.15" x2="299.25" y2="223.13"/><path class="cls-38" d="M299.28,218.61A22.76,22.76,0,0,0,302.8,225l-3.56-1.31L295.67,225A22.89,22.89,0,0,0,299.28,218.61Z"/><line class="cls-45" x1="129.01" y1="351.37" x2="139.96" y2="351.37"/><line class="cls-46" x1="160.46" y1="351.37" x2="191.23" y2="351.37"/><polyline class="cls-45" points="201.48 351.37 212.43 351.37 212.43 362.32"/><line class="cls-47" x1="212.43" y1="386.76" x2="212.43" y2="521.2"/><polyline class="cls-45" points="212.43 533.43 212.43 544.37 201.48 544.37"/><line class="cls-48" x1="176.8" y1="544.37" x2="139.79" y2="544.37"/><line class="cls-45" x1="127.45" y1="544.37" x2="116.5" y2="544.37"/><path class="cls-49" d="M112,544.37a22.87,22.87,0,0,0,6.41-3.56l-1.29,3.56,1.29,3.57A22.65,22.65,0,0,0,112,544.37Z"/></g></svg>