<svg width="372" height="126" viewBox="0 0 372 126" fill="none" xmlns="http://www.w3.org/2000/svg">
<path d="M244.443 112.021C243.859 111.719 243.234 111.578 242.573 111.604C242.083 111.599 241.599 111.667 241.125 111.797C240.667 111.922 240.24 112.12 239.849 112.396C239.464 112.677 239.156 113.026 238.932 113.443C238.693 113.906 238.578 114.401 238.589 114.922C238.578 115.214 238.641 115.49 238.781 115.75C238.922 115.99 239.109 116.177 239.349 116.313C239.609 116.464 239.88 116.584 240.161 116.672C240.458 116.766 240.812 116.865 241.203 116.959C241.599 117.052 241.979 117.167 242.297 117.271C242.563 117.354 242.823 117.464 243.068 117.604C243.24 117.698 243.375 117.823 243.484 117.979C243.578 118.136 243.625 118.307 243.615 118.49C243.62 118.818 243.542 119.125 243.385 119.412C243.224 119.698 243.01 119.938 242.745 120.125C242.437 120.334 242.109 120.495 241.75 120.599C241.339 120.719 240.917 120.776 240.484 120.771C239.974 120.787 239.479 120.688 239.016 120.464C238.578 120.235 238.214 119.917 237.917 119.516L237.745 119.287L237 119.86L237.146 120.084C237.49 120.625 237.948 121.037 238.521 121.313C239.125 121.589 239.755 121.714 240.417 121.703C240.969 121.709 241.51 121.625 242.042 121.464C242.521 121.318 242.964 121.094 243.359 120.787C243.724 120.495 244.021 120.141 244.24 119.729C244.458 119.302 244.568 118.849 244.568 118.37C244.573 118.031 244.49 117.724 244.313 117.438C244.135 117.177 243.911 116.964 243.635 116.807C243.328 116.625 242.995 116.485 242.651 116.386C242.286 116.281 241.885 116.167 241.448 116.047C241.094 115.953 240.786 115.865 240.526 115.787C240.318 115.724 240.115 115.641 239.927 115.531C239.802 115.459 239.703 115.365 239.63 115.245C239.563 115.11 239.531 114.969 239.536 114.818C239.526 114.464 239.604 114.13 239.766 113.813C239.922 113.531 240.13 113.292 240.391 113.104C240.672 112.901 240.979 112.761 241.318 112.672C241.682 112.578 242.057 112.531 242.438 112.531C242.922 112.526 243.385 112.61 243.833 112.792C244.167 112.906 244.406 113.125 244.536 113.459L244.641 113.745L245.5 113.38L245.422 113.13C245.245 112.63 244.922 112.261 244.443 112.021Z" fill="white"/>
<path d="M254.828 108.531H253.885L253.214 111.745H251.938L251.74 112.677H252.995L251.474 119.859C251.458 119.927 251.453 119.99 251.448 120.036C251.438 120.099 251.432 120.156 251.432 120.219C251.417 120.635 251.568 120.984 251.891 121.255C252.208 121.516 252.568 121.641 252.979 121.625C253.224 121.625 253.464 121.594 253.698 121.536C253.917 121.479 254.109 121.422 254.281 121.359C254.484 121.281 254.677 121.182 254.859 121.068L255.073 120.938L254.698 120.021L254.406 120.307C254.37 120.333 254.333 120.354 254.297 120.37C254.198 120.422 254.099 120.469 253.995 120.505C253.854 120.563 253.708 120.604 253.563 120.635C253.406 120.677 253.245 120.693 253.078 120.693C252.891 120.698 252.719 120.641 252.573 120.526C252.438 120.406 252.38 120.255 252.396 120.078C252.396 119.979 252.412 119.88 252.432 119.786C252.464 119.641 252.51 119.401 252.583 119.073L253.953 112.682H256.063L256.255 111.75H254.172L254.828 108.531Z" fill="white"/>
<path d="M266.802 111.766C266.068 111.844 265.396 112.083 264.781 112.49C264.422 112.719 264.099 112.99 263.802 113.297L264.125 111.74H263.182L261.135 121.412L261.109 121.526H262.047L263.323 115.521C263.688 114.698 264.224 114.016 264.932 113.469C265.573 112.979 266.297 112.714 267.104 112.672H267.328L267.521 111.75H267.005C266.938 111.75 266.87 111.75 266.802 111.766Z" fill="white"/>
<path d="M280.359 113.292C280.328 113.24 280.297 113.188 280.26 113.141C280.063 112.839 279.823 112.578 279.542 112.349C279.25 112.115 278.927 111.932 278.573 111.807C278.177 111.667 277.766 111.604 277.349 111.609C276.62 111.615 275.938 111.787 275.297 112.12C274.641 112.464 274.063 112.906 273.568 113.453C273.063 114.016 272.661 114.641 272.37 115.339C272.078 116.037 271.927 116.766 271.927 117.526C271.927 118.052 272.005 118.568 272.161 119.068C272.307 119.557 272.542 120.005 272.854 120.412C273.161 120.807 273.536 121.12 273.979 121.354C274.453 121.604 274.958 121.724 275.49 121.719C275.87 121.719 276.245 121.662 276.609 121.557C276.995 121.448 277.365 121.292 277.708 121.094C278.068 120.896 278.401 120.662 278.719 120.401C278.776 120.354 278.833 120.302 278.891 120.25L278.865 120.406C278.844 120.5 278.833 120.563 278.828 120.599C278.818 120.646 278.813 120.693 278.813 120.734C278.802 120.912 278.844 121.073 278.943 121.219C279.042 121.365 279.177 121.464 279.344 121.516C279.427 121.537 279.51 121.552 279.599 121.547H279.833L279.953 120.948L279.99 120.594H279.76C279.76 120.573 279.766 120.557 279.776 120.537L281.63 111.875L281.656 111.76H280.688L280.359 113.292ZM277.208 112.537C277.573 112.531 277.922 112.594 278.26 112.729C278.906 112.99 279.396 113.427 279.724 114.047C279.87 114.318 279.969 114.604 280.016 114.912L279.318 118.162C279.214 118.521 279.031 118.844 278.781 119.12C278.495 119.443 278.172 119.729 277.813 119.964C277.448 120.208 277.057 120.401 276.646 120.547C275.818 120.844 275.099 120.828 274.49 120.505C274.162 120.323 273.875 120.089 273.641 119.792C273.391 119.479 273.198 119.135 273.068 118.755C272.932 118.349 272.859 117.932 272.865 117.5C272.87 116.896 272.99 116.313 273.224 115.755C273.464 115.162 273.786 114.62 274.193 114.13C274.583 113.651 275.052 113.266 275.589 112.964C276.094 112.677 276.63 112.537 277.208 112.537Z" fill="white"/>
<path d="M291.198 108.531H290.255L289.583 111.745H288.302L288.109 112.677H289.365L287.844 119.859C287.833 119.927 287.823 119.99 287.818 120.036C287.807 120.099 287.802 120.156 287.802 120.219C287.786 120.635 287.943 120.984 288.26 121.255C288.578 121.516 288.943 121.641 289.349 121.625C289.594 121.625 289.833 121.599 290.068 121.536C290.286 121.479 290.479 121.422 290.651 121.359C290.854 121.281 291.047 121.182 291.234 121.068L291.443 120.938L291.068 120.021L290.776 120.307C290.76 120.323 290.724 120.339 290.667 120.37C290.568 120.422 290.469 120.469 290.359 120.505C290.224 120.563 290.078 120.604 289.932 120.635C289.771 120.677 289.615 120.693 289.448 120.693C289.26 120.698 289.089 120.646 288.938 120.526C288.807 120.406 288.75 120.255 288.766 120.078C288.766 119.979 288.781 119.88 288.802 119.786C288.833 119.641 288.88 119.401 288.953 119.073L290.318 112.682H292.427L292.625 111.75H290.526L291.198 108.531Z" fill="white"/>
<path d="M299.885 117.115C300.344 117.125 300.813 117.13 301.271 117.13C304.542 117.13 306.198 116.188 306.198 114.323C306.208 113.896 306.109 113.495 305.906 113.125C305.719 112.797 305.479 112.516 305.182 112.281C304.891 112.057 304.568 111.891 304.214 111.776C303.885 111.661 303.547 111.604 303.198 111.604C302.401 111.594 301.651 111.771 300.943 112.12C300.266 112.458 299.672 112.906 299.167 113.464C298.662 114.021 298.266 114.651 297.99 115.349C297.703 116.042 297.563 116.766 297.557 117.516C297.557 118.063 297.635 118.594 297.802 119.115C297.958 119.599 298.193 120.047 298.505 120.448C298.818 120.839 299.203 121.146 299.646 121.37C300.141 121.604 300.656 121.719 301.198 121.708C301.63 121.708 302.052 121.646 302.464 121.531C302.875 121.411 303.26 121.245 303.63 121.031C304 120.818 304.339 120.557 304.646 120.255C304.948 119.948 305.208 119.604 305.417 119.224L305.594 118.917L304.693 118.63L304.578 118.839C304.412 119.135 304.208 119.401 303.964 119.641C303.719 119.88 303.448 120.083 303.151 120.25C302.854 120.411 302.542 120.542 302.219 120.635C301.49 120.875 300.781 120.833 300.089 120.521C299.745 120.359 299.453 120.125 299.214 119.828C298.969 119.521 298.792 119.172 298.677 118.792C298.557 118.37 298.495 117.938 298.5 117.5C298.5 117.354 298.5 117.208 298.516 117.057C299.031 117.083 299.484 117.104 299.885 117.115ZM303.12 112.536C303.375 112.536 303.62 112.573 303.859 112.641C304.109 112.708 304.339 112.818 304.547 112.969C304.755 113.12 304.922 113.307 305.052 113.531C305.318 114.036 305.318 114.536 305.052 115.042C304.901 115.292 304.698 115.484 304.438 115.625C304.057 115.833 303.656 115.969 303.229 116.042C302.594 116.156 301.953 116.208 301.313 116.198C300.865 116.198 300.406 116.198 299.953 116.182C299.594 116.182 299.177 116.151 298.719 116.13C298.854 115.734 299.031 115.359 299.245 115.005C299.526 114.531 299.87 114.109 300.276 113.74C300.672 113.375 301.115 113.083 301.604 112.865C302.089 112.651 302.594 112.536 303.12 112.536Z" fill="white"/>
<path d="M320.505 113.349C320.458 113.271 320.406 113.193 320.354 113.12C320.151 112.828 319.911 112.568 319.641 112.344C319.359 112.109 319.047 111.932 318.703 111.807C318.328 111.672 317.943 111.604 317.542 111.609C316.802 111.609 316.104 111.786 315.443 112.13C314.781 112.479 314.208 112.932 313.714 113.49C313.219 114.052 312.823 114.677 312.531 115.37C312.234 116.057 312.089 116.771 312.083 117.516C312.083 118.047 312.161 118.563 312.318 119.068C312.469 119.557 312.698 120.005 313.016 120.411C313.323 120.807 313.698 121.12 314.141 121.359C314.99 121.781 315.87 121.844 316.771 121.552C317.156 121.443 317.521 121.292 317.87 121.094C318.224 120.891 318.563 120.661 318.88 120.396L319.031 120.266L318.75 121.578C318.651 122.042 318.469 122.474 318.208 122.865C317.964 123.229 317.661 123.542 317.313 123.802C316.958 124.057 316.568 124.245 316.146 124.37C315.401 124.589 314.646 124.62 313.885 124.458C313.604 124.401 313.333 124.297 313.089 124.146C312.849 124.005 312.646 123.823 312.474 123.604C312.292 123.365 312.156 123.104 312.073 122.813L311.99 122.536L311.083 122.807L311.167 123.083C311.26 123.427 311.401 123.75 311.589 124.057C311.776 124.359 312.01 124.62 312.297 124.833C312.615 125.063 312.964 125.229 313.349 125.328C313.813 125.453 314.286 125.51 314.771 125.5C315.302 125.5 315.828 125.427 316.339 125.276C316.865 125.125 317.349 124.896 317.797 124.578C318.255 124.255 318.646 123.854 318.958 123.391C319.302 122.875 319.536 122.313 319.661 121.708L321.771 111.755H320.844L320.505 113.349ZM317.474 112.536C317.802 112.536 318.12 112.604 318.427 112.729C318.734 112.849 319.01 113.016 319.255 113.234C319.5 113.453 319.698 113.708 319.854 114C320.01 114.292 320.12 114.599 320.172 114.927L319.479 118.177C319.375 118.505 319.208 118.802 318.979 119.063C318.411 119.729 317.724 120.224 316.911 120.547C316.109 120.87 315.276 120.859 314.641 120.526C314.302 120.349 314.016 120.115 313.771 119.818C313.521 119.5 313.333 119.151 313.214 118.766C313.083 118.349 313.016 117.917 313.021 117.474C313.026 116.891 313.141 116.328 313.365 115.786C313.594 115.198 313.911 114.661 314.318 114.182C314.719 113.698 315.193 113.302 315.74 112.995C316.276 112.688 316.854 112.536 317.474 112.536Z" fill="white"/>
<path d="M327.318 121.417L327.297 121.531H328.24L330.286 111.859L330.313 111.745H329.365L327.318 121.417Z" fill="white"/>
<path d="M329.76 109.948H330.703L331.104 108H330.162L329.76 109.948Z" fill="white"/>
<path d="M342.729 112.021C342.146 111.719 341.521 111.578 340.859 111.604C340.37 111.599 339.885 111.667 339.411 111.797C338.953 111.922 338.526 112.12 338.135 112.396C337.75 112.677 337.443 113.026 337.224 113.448C336.984 113.912 336.87 114.406 336.875 114.927C336.865 115.214 336.927 115.485 337.068 115.735C337.203 115.985 337.401 116.182 337.651 116.318C337.911 116.469 338.182 116.589 338.464 116.677C338.76 116.771 339.115 116.87 339.51 116.964C339.906 117.057 340.281 117.172 340.594 117.281C340.865 117.36 341.125 117.474 341.37 117.61C341.542 117.703 341.677 117.828 341.786 117.985C341.88 118.141 341.922 118.313 341.917 118.495C341.922 118.823 341.844 119.13 341.688 119.417C341.526 119.703 341.313 119.943 341.047 120.13C340.74 120.344 340.411 120.5 340.052 120.604C339.641 120.724 339.219 120.781 338.792 120.776C338.281 120.807 337.802 120.709 337.344 120.485C336.885 120.261 336.51 119.943 336.219 119.521L336.047 119.297L335.286 119.86L335.432 120.084C335.771 120.625 336.229 121.037 336.807 121.313C337.406 121.589 338.042 121.714 338.703 121.703C339.255 121.709 339.797 121.625 340.328 121.464C340.807 121.323 341.245 121.094 341.641 120.787C342.01 120.495 342.307 120.146 342.526 119.729C342.745 119.302 342.854 118.849 342.849 118.37C342.859 118.031 342.776 117.724 342.599 117.438C342.422 117.177 342.193 116.964 341.922 116.807C341.609 116.625 341.281 116.485 340.932 116.386C340.573 116.281 340.172 116.167 339.729 116.047C339.38 115.953 339.073 115.865 338.813 115.787C338.604 115.724 338.401 115.641 338.214 115.531C338.089 115.459 337.99 115.365 337.917 115.245C337.844 115.11 337.813 114.969 337.823 114.818C337.797 114.094 338.083 113.521 338.677 113.104C338.958 112.901 339.266 112.761 339.599 112.677C339.964 112.584 340.339 112.537 340.719 112.537C341.203 112.531 341.667 112.615 342.115 112.797C342.448 112.912 342.688 113.13 342.818 113.464L342.922 113.75L343.781 113.386L343.703 113.136C343.526 112.636 343.203 112.261 342.729 112.021Z" fill="white"/>
<path d="M353.109 108.531H352.167L351.49 111.745H350.214L350.021 112.677H351.276L349.755 119.859C349.745 119.922 349.734 119.979 349.729 120.036C349.719 120.099 349.714 120.156 349.714 120.219C349.698 120.635 349.849 120.984 350.172 121.255C350.484 121.516 350.849 121.641 351.26 121.625C351.505 121.625 351.745 121.599 351.979 121.536C352.198 121.479 352.391 121.422 352.557 121.359C352.76 121.281 352.958 121.182 353.141 121.068L353.349 120.938L352.974 120.021L352.688 120.307C352.672 120.323 352.635 120.339 352.578 120.37C352.344 120.49 352.099 120.578 351.839 120.635C351.682 120.677 351.521 120.693 351.359 120.693C351.167 120.698 351 120.646 350.849 120.526C350.714 120.406 350.656 120.255 350.672 120.078C350.677 119.979 350.688 119.88 350.714 119.786C350.74 119.641 350.792 119.401 350.865 119.073L352.229 112.682H354.339L354.531 111.75H352.448L353.109 108.531Z" fill="white"/>
<path d="M129.87 112.932C129.578 112.542 129.219 112.229 128.792 111.99C128.307 111.724 127.792 111.599 127.24 111.615C126.411 111.609 125.646 111.839 124.953 112.297C124.505 112.583 124.089 112.906 123.698 113.266L124.786 108.115L124.807 108H123.865L121.021 121.422L121 121.536H121.943L122.234 120.177L122.313 120.297C122.516 120.578 122.755 120.823 123.026 121.031C123.318 121.25 123.635 121.422 123.979 121.536C124.354 121.667 124.745 121.724 125.141 121.724C125.865 121.714 126.552 121.547 127.193 121.214C127.865 120.87 128.453 120.422 128.964 119.87C129.49 119.307 129.906 118.672 130.224 117.969C130.547 117.245 130.708 116.49 130.708 115.703C130.708 115.208 130.635 114.724 130.5 114.245C130.37 113.771 130.161 113.333 129.87 112.932ZM125.188 120.786C124.542 120.802 123.958 120.615 123.443 120.224C122.953 119.849 122.656 119.359 122.552 118.755L123.339 114.891C123.604 114.583 123.88 114.292 124.161 114.016C124.443 113.729 124.75 113.474 125.078 113.24C125.385 113.026 125.708 112.854 126.057 112.724C126.792 112.443 127.516 112.464 128.229 112.797C128.557 112.969 128.833 113.198 129.057 113.49C129.292 113.797 129.469 114.135 129.578 114.505C129.698 114.901 129.76 115.297 129.76 115.708C129.755 116.354 129.63 116.974 129.37 117.563C129.12 118.167 128.771 118.708 128.333 119.198C127.911 119.667 127.417 120.052 126.854 120.349C126.333 120.635 125.776 120.781 125.177 120.786H125.188Z" fill="white"/>
<path d="M142.198 111.776C141.469 111.854 140.797 112.094 140.182 112.5C139.823 112.729 139.495 113 139.198 113.307L139.521 111.75H138.578L136.536 121.422L136.51 121.536H137.453L138.729 115.531C139.094 114.714 139.625 114.031 140.333 113.484C140.974 112.99 141.698 112.724 142.505 112.682H142.734L142.927 111.76H142.411C142.339 111.755 142.266 111.76 142.198 111.776Z" fill="white"/>
<path d="M155.76 113.302C155.724 113.25 155.693 113.198 155.661 113.151C155.458 112.854 155.219 112.588 154.937 112.359C154.646 112.125 154.323 111.943 153.969 111.818C153.573 111.677 153.167 111.614 152.745 111.62C152.021 111.625 151.333 111.797 150.693 112.13C150.036 112.474 149.458 112.917 148.964 113.463C148.458 114.026 148.057 114.651 147.771 115.349C147.474 116.047 147.323 116.776 147.323 117.536C147.323 118.062 147.401 118.578 147.557 119.078C147.708 119.568 147.937 120.016 148.25 120.422C148.562 120.818 148.937 121.13 149.38 121.364C149.849 121.614 150.354 121.734 150.885 121.729C151.266 121.729 151.641 121.672 152.01 121.568C152.396 121.458 152.76 121.302 153.109 121.104C153.463 120.906 153.802 120.672 154.115 120.411C154.172 120.364 154.234 120.312 154.292 120.26L154.26 120.417C154.24 120.51 154.229 120.573 154.224 120.609C154.214 120.656 154.208 120.703 154.208 120.745C154.198 120.922 154.24 121.083 154.339 121.229C154.443 121.375 154.573 121.474 154.745 121.526C154.823 121.547 154.911 121.562 154.995 121.557H155.229L155.349 120.958L155.385 120.604H155.156C155.156 120.588 155.156 120.568 155.167 120.547L157.026 111.885L157.052 111.771H156.083L155.76 113.302ZM152.604 112.547C152.969 112.542 153.318 112.609 153.656 112.739C153.974 112.87 154.26 113.052 154.521 113.281C154.766 113.505 154.964 113.766 155.12 114.057C155.266 114.328 155.365 114.62 155.411 114.922L154.719 118.177C154.609 118.536 154.427 118.854 154.177 119.13C153.891 119.458 153.568 119.739 153.208 119.979C152.844 120.219 152.458 120.417 152.047 120.562C151.219 120.854 150.495 120.844 149.891 120.516C149.562 120.338 149.276 120.099 149.036 119.807C148.786 119.495 148.594 119.151 148.469 118.771C148.328 118.364 148.26 117.943 148.26 117.516C148.271 116.906 148.391 116.328 148.625 115.766C148.859 115.172 149.182 114.63 149.594 114.141C149.984 113.667 150.453 113.276 150.99 112.974C151.49 112.693 152.031 112.547 152.604 112.547Z" fill="white"/>
<path d="M169.125 111.615C168.688 111.615 168.26 111.677 167.844 111.807C167.411 111.937 166.995 112.12 166.599 112.344C166.187 112.583 165.807 112.859 165.458 113.182C165.396 113.245 165.328 113.307 165.266 113.375L165.604 111.755H164.661L162.615 121.422L162.594 121.536H163.536L164.813 115.531C165.016 115.109 165.276 114.719 165.583 114.37C165.906 114 166.26 113.677 166.656 113.396C167.036 113.135 167.437 112.922 167.87 112.766C168.25 112.625 168.646 112.547 169.052 112.542C169.536 112.542 169.87 112.667 170.078 112.917C170.286 113.172 170.411 113.62 170.411 114.224C170.396 114.844 170.323 115.458 170.188 116.062L169.057 121.422L169.036 121.536H169.979L171.109 116.177C171.193 115.792 171.255 115.427 171.302 115.088C171.344 114.771 171.365 114.453 171.365 114.13C171.365 113.292 171.182 112.656 170.813 112.245C170.448 111.828 169.87 111.615 169.125 111.615Z" fill="white"/>
<path d="M187.323 108.01L186.208 113.302C186.177 113.25 186.146 113.198 186.115 113.151C185.911 112.854 185.672 112.588 185.391 112.359C184.76 111.854 184.042 111.604 183.234 111.614C182.5 111.614 181.807 111.786 181.156 112.125C180.495 112.458 179.911 112.906 179.411 113.453C178.911 114.01 178.51 114.635 178.219 115.328C177.922 116.026 177.771 116.75 177.771 117.51C177.771 118.036 177.849 118.557 178.005 119.062C178.156 119.552 178.385 120 178.703 120.406C179.016 120.802 179.391 121.114 179.838 121.349C180.318 121.599 180.828 121.724 181.37 121.713C181.745 121.713 182.109 121.656 182.469 121.552C182.849 121.437 183.213 121.286 183.557 121.088C183.917 120.89 184.25 120.656 184.562 120.396L184.724 120.26L184.693 120.417C184.672 120.495 184.667 120.573 184.661 120.651V120.713C184.641 120.885 184.677 121.042 184.766 121.187C184.854 121.333 184.979 121.432 185.141 121.489C185.24 121.526 185.338 121.542 185.443 121.542H185.682L185.849 120.62H185.604L188.281 108.01H187.323ZM183.167 112.547C183.49 112.547 183.797 112.614 184.088 112.739C184.401 112.87 184.677 113.047 184.932 113.271C185.187 113.489 185.396 113.75 185.562 114.047C185.719 114.323 185.818 114.614 185.865 114.932L185.172 118.182C185.062 118.552 184.88 118.875 184.62 119.156C184.338 119.479 184.016 119.76 183.651 120C183.286 120.239 182.901 120.432 182.49 120.583C181.672 120.885 180.963 120.87 180.333 120.536C179.995 120.359 179.708 120.125 179.469 119.828C179.213 119.51 179.026 119.161 178.906 118.776C178.776 118.354 178.708 117.927 178.713 117.484C178.719 116.88 178.833 116.297 179.068 115.734C179.297 115.151 179.62 114.62 180.036 114.14C180.443 113.672 180.922 113.286 181.469 112.989C181.995 112.698 182.562 112.552 183.167 112.547Z" fill="white"/>
<path d="M195.49 109.958H196.432L196.833 108.01H195.891L195.49 109.958Z" fill="white"/>
<path d="M193.052 121.427L193.026 121.542H193.969L196.016 111.87L196.036 111.755H195.094L193.052 121.427Z" fill="white"/>
<path d="M208.094 111.615C207.661 111.615 207.234 111.677 206.818 111.807C206.38 111.937 205.964 112.12 205.573 112.344C205.161 112.583 204.781 112.859 204.432 113.182L204.234 113.375L204.573 111.755H203.63L201.583 121.422L201.557 121.536H202.505L203.781 115.531C203.984 115.109 204.245 114.719 204.552 114.37C204.875 114 205.229 113.677 205.625 113.396C206 113.135 206.406 112.922 206.833 112.766C207.219 112.625 207.615 112.547 208.021 112.542C208.505 112.542 208.839 112.667 209.047 112.917C209.255 113.172 209.38 113.62 209.38 114.224C209.365 114.844 209.292 115.458 209.156 116.062L208.031 121.422L208.005 121.536H208.948L210.083 116.177C210.167 115.792 210.234 115.427 210.276 115.088C210.318 114.771 210.339 114.453 210.344 114.13C210.344 113.292 210.146 112.656 209.792 112.245C209.432 111.828 208.839 111.615 208.094 111.615Z" fill="white"/>
<path d="M225.156 113.359C225.104 113.281 225.052 113.203 225 113.13C224.797 112.838 224.557 112.578 224.286 112.354C224.005 112.12 223.693 111.943 223.354 111.818C222.974 111.682 222.589 111.614 222.187 111.62C221.448 111.62 220.75 111.797 220.089 112.14C219.432 112.489 218.854 112.943 218.359 113.5C217.865 114.062 217.469 114.687 217.177 115.38C216.88 116.068 216.734 116.781 216.729 117.526C216.729 118.057 216.807 118.573 216.964 119.078C217.115 119.568 217.344 120.015 217.661 120.422C217.969 120.818 218.344 121.13 218.786 121.37C219.635 121.792 220.516 121.854 221.417 121.562C221.802 121.453 222.167 121.297 222.516 121.104C222.875 120.901 223.208 120.667 223.526 120.406L223.677 120.276L223.396 121.588C223.297 122.052 223.12 122.484 222.854 122.875C222.609 123.239 222.307 123.552 221.958 123.812C221.604 124.068 221.224 124.255 220.807 124.38C220.057 124.599 219.302 124.63 218.542 124.469C218.255 124.411 217.99 124.307 217.745 124.156C217.505 124.015 217.302 123.833 217.13 123.614C216.948 123.375 216.812 123.114 216.729 122.823L216.646 122.547L215.745 122.818L215.823 123.094C215.917 123.437 216.057 123.76 216.245 124.068C216.432 124.37 216.667 124.63 216.953 124.844C217.271 125.073 217.62 125.239 218 125.338C218.469 125.463 218.943 125.521 219.427 125.51C219.958 125.51 220.479 125.437 220.995 125.286C221.521 125.135 222.005 124.906 222.453 124.588C222.911 124.265 223.297 123.864 223.615 123.401C223.958 122.885 224.193 122.323 224.312 121.719L226.427 111.765H225.5L225.156 113.359ZM222.12 112.547C222.448 112.547 222.766 112.614 223.073 112.739C223.38 112.859 223.656 113.026 223.901 113.245C224.146 113.463 224.344 113.719 224.505 114.01C224.661 114.302 224.766 114.609 224.818 114.937L224.125 118.187C224.021 118.515 223.854 118.812 223.625 119.073C223.057 119.739 222.37 120.234 221.557 120.557C220.755 120.88 219.922 120.87 219.286 120.536C218.948 120.359 218.661 120.125 218.417 119.828C218.167 119.51 217.979 119.161 217.859 118.776C217.729 118.359 217.661 117.927 217.667 117.484C217.677 116.901 217.792 116.338 218.01 115.797C218.24 115.208 218.557 114.672 218.964 114.193C219.365 113.708 219.844 113.312 220.391 113.005C220.927 112.698 221.5 112.547 222.12 112.547Z" fill="white"/>
<path d="M87.4323 43.8073C87.4323 19.651 67.8177 0 43.7135 0C19.6094 0 0 19.651 0 43.8073C0 67.9635 19.6094 87.6146 43.7135 87.6146C45.3125 87.6146 46.9063 87.526 48.4948 87.3542V100.333H49.2292C50.849 100.333 52.4688 100.255 54.0885 100.099C55.7031 99.9375 57.3073 99.7031 58.901 99.3854C60.4948 99.0677 62.0677 98.6771 63.6198 98.2031C65.1719 97.7344 66.7031 97.1875 68.2031 96.5625C69.7031 95.9427 71.1667 95.25 72.599 94.4792C74.0313 93.7135 75.4219 92.8802 76.776 91.974C78.125 91.0729 79.4271 90.1042 80.6823 89.0729C81.9375 88.0417 83.1406 86.9479 84.2865 85.7969C85.4375 84.6458 86.526 83.4427 87.5573 82.1875C88.5833 80.9271 89.5521 79.6198 90.4531 78.2708C91.3542 76.9167 92.1875 75.5208 92.9531 74.0885C93.7188 72.651 94.4115 71.1823 95.0313 69.6771C95.651 68.1771 96.1979 66.6458 96.6667 65.0885C97.1406 63.5313 97.5313 61.9531 97.849 60.3594C98.1615 58.7604 98.401 57.151 98.5573 55.5313C98.7135 53.9167 98.7917 52.2917 98.7917 50.6615V49.9271H87.0052C87.2865 47.8958 87.4323 45.8594 87.4323 43.8073ZM97.3125 51.401C96.9271 77.2031 75.7031 98.4635 49.9531 98.8594V87.1667C52.2188 86.8385 54.4427 86.3333 56.625 85.6563C58.8125 84.9792 60.9323 84.1354 62.9844 83.125C65.0365 82.1146 67 80.9479 68.8698 79.625C70.7396 78.3073 72.4948 76.849 74.1354 75.2552C75.7813 73.6615 77.2865 71.9427 78.6615 70.1146C80.0365 68.2813 81.2604 66.349 82.3333 64.3281C83.401 62.3021 84.3125 60.2031 85.0521 58.0365C85.7969 55.8698 86.3698 53.6563 86.7656 51.401H97.3125ZM49.9635 85.4427V51.401H85.0469C84.6563 53.5469 84.1042 55.6458 83.3854 57.7083C82.6667 59.7656 81.7969 61.7552 80.7708 63.6771C79.7448 65.6042 78.5781 67.4323 77.2656 69.1771C75.9531 70.9167 74.5156 72.5469 72.9531 74.0625C71.3906 75.5781 69.7188 76.9635 67.9427 78.224C66.1615 79.4792 64.2969 80.5885 62.349 81.5573C60.3958 82.5208 58.3802 83.3333 56.3073 83.9844C54.2292 84.6354 52.1146 85.1198 49.9635 85.4427ZM48.4948 49.9271V85.6354C46.9063 85.8177 45.3125 85.9063 43.7135 85.9063C42.5104 85.9063 41.3125 85.8542 40.1198 85.75C38.9219 85.6458 37.7344 85.4948 36.5521 85.2865C35.3698 85.0781 34.1979 84.8229 33.0365 84.5208C31.875 84.2135 30.7292 83.8542 29.599 83.4531C28.4688 83.0469 27.3594 82.5938 26.2656 82.0938C25.1719 81.5938 24.1042 81.0469 23.0625 80.4583C22.0156 79.8646 20.9948 79.2292 20.0052 78.5469C19.0156 77.8698 18.0573 77.151 17.125 76.3854C16.1979 75.625 15.3021 74.8229 14.4427 73.9844C13.5833 73.1458 12.7604 72.276 11.974 71.3646C11.1875 70.4531 10.4427 69.5156 9.73438 68.5417C9.03125 67.5677 8.36979 66.5677 7.75 65.5365C7.13021 64.5052 6.55208 63.4531 6.02604 62.3698C5.49479 61.2917 5.01042 60.1927 4.57813 59.0677C4.14063 57.9479 3.75521 56.8125 3.41667 55.6563C3.07813 54.5052 2.79167 53.3385 2.55208 52.1563C2.3125 50.9792 2.125 49.7917 1.98958 48.5938C1.85417 47.401 1.76562 46.2031 1.73438 45C1.69792 43.7969 1.71354 42.5938 1.78646 41.3958C1.85417 40.1927 1.97396 39 2.14062 37.8073C2.3125 36.6146 2.53646 35.4375 2.80729 34.2656C3.07813 33.0938 3.40104 31.9323 3.77083 30.7917C4.14062 29.6458 4.5625 28.5208 5.02604 27.4115C5.49479 26.3021 6.00521 25.2188 6.56771 24.151C7.13021 23.0885 7.73438 22.0521 8.38021 21.0417C9.03125 20.026 9.71875 19.0469 10.4531 18.0938C11.1875 17.1406 11.9583 16.2188 12.7708 15.3333C13.5781 14.4479 14.4271 13.5938 15.3125 12.7813C16.1979 11.9688 17.1146 11.1927 18.0625 10.4583C19.0156 9.72396 19.9948 9.03125 21.0052 8.38021C22.0156 7.72917 23.0469 7.125 24.1094 6.5625C25.1719 6 26.2552 5.48437 27.3594 5.01563C28.1563 4.67708 28.9583 4.36458 29.776 4.07813C30.5885 3.79167 31.4115 3.53125 32.2396 3.29167C33.0677 3.05729 33.9063 2.84375 34.75 2.66146C35.5938 2.47396 36.4427 2.31771 37.2917 2.18229C38.1458 2.05208 39 1.94792 39.8594 1.86458C40.7188 1.78646 41.5833 1.73437 42.4427 1.70833C43.3073 1.68229 44.1719 1.68229 45.0313 1.70833C45.8958 1.73437 46.7552 1.78646 47.6146 1.86458C48.474 1.94792 49.3333 2.05208 50.1823 2.1875C51.0365 2.31771 51.8854 2.47917 52.7292 2.66146C53.5677 2.84896 54.4063 3.05729 55.2344 3.29688C56.0677 3.53125 56.8906 3.79688 57.7031 4.08333C58.5156 4.36979 59.3229 4.68229 60.1146 5.02083C60.9115 5.35937 61.6927 5.71875 62.4635 6.10417C63.2396 6.48958 64 6.90104 64.7448 7.33333C65.4948 7.76563 66.224 8.21875 66.9427 8.69792C67.6667 9.17708 68.3698 9.67708 69.0573 10.1979C69.7448 10.7188 70.4167 11.2604 71.0729 11.8229C71.7292 12.3854 72.3646 12.9688 72.9844 13.5729C73.6042 14.1771 74.2031 14.7969 74.7865 15.4375C75.3646 16.0729 75.9271 16.7292 76.4688 17.4063C77.0104 18.0781 77.526 18.7708 78.026 19.474C78.526 20.1823 79 20.901 79.4531 21.6406C79.9063 22.375 80.3385 23.125 80.7448 23.8854C81.1563 24.6458 81.5365 25.4219 81.901 26.2083C82.2604 26.9948 82.5938 27.7917 82.9063 28.5938C83.2188 29.401 83.5052 30.2188 83.7656 31.0417C84.026 31.8646 84.2604 32.6979 84.4688 33.5365C84.6823 34.375 84.8646 35.2188 85.0208 36.0729C85.1823 36.9219 85.3125 37.776 85.4167 38.6354C85.5208 39.4896 85.6042 40.3542 85.6563 41.2135C85.7083 42.0781 85.7344 42.9427 85.7292 43.8073C85.7344 45.8594 85.5885 47.901 85.2917 49.9271H48.4948Z" fill="white"/>
<path d="M215.005 82.1196H224.141V90.9894C222.01 93.4634 219.797 95.2967 217.573 96.4217C215.328 97.578 212.943 98.1509 210.422 98.1457C208.104 98.1613 205.906 97.6613 203.823 96.6405C201.771 95.6353 199.974 94.2863 198.432 92.5936C196.865 90.8644 195.651 88.9113 194.797 86.7342C193.911 84.5051 193.474 82.1926 193.474 79.7967C193.479 77.4946 193.859 75.2603 194.609 73.0884C195.344 70.9269 196.427 68.9686 197.87 67.203C199.302 65.4634 201.016 64.0728 203.005 63.0311C205 61.979 207.271 61.4478 209.766 61.4478C212.734 61.4478 215.396 62.0467 217.677 63.2238C219.958 64.4009 221.839 66.3488 223.297 69.0259L223.411 69.2342L225 68.7342L224.849 68.4269C224.229 67.1821 223.479 66.0207 222.594 64.9478C221.693 63.8592 220.641 62.9426 219.432 62.203C218.109 61.3957 216.698 60.7967 215.198 60.4113C213.412 59.9634 211.599 59.7498 209.76 59.7707C207.203 59.7446 204.781 60.3071 202.49 61.4478C200.292 62.5571 198.406 64.0519 196.823 65.9426C195.208 67.8905 193.969 70.0571 193.109 72.4373C192.245 74.8176 191.813 77.2759 191.802 79.8071C191.813 82.3123 192.26 84.729 193.161 87.0676C194.052 89.4373 195.328 91.578 196.984 93.4842C198.656 95.3957 200.615 96.9269 202.875 98.078C205.25 99.2759 207.766 99.8644 210.427 99.8332C215.557 99.8332 220.172 97.6665 224.151 93.3853V99.5623H225.813V80.4478H215.005V82.1196Z" fill="white"/>
<path d="M265.146 99.5573L248.063 60.224L247.984 60.0469H246.63L229.474 99.4219L229.417 99.5573H231.24L237.313 85.6302H257.234L263.307 99.5573H265.146ZM256.495 83.9531H238.005L247.307 62.651L256.495 83.9531Z" fill="white"/>
<path d="M272.542 63.3021L301.302 99.4479L301.385 99.5573H303.073V60.0469H301.401V96.849L272.203 60.1563L272.12 60.0469H270.87V99.5573H272.542V63.3021Z" fill="white"/>
<path d="M340.333 60.0469H308.896V61.724H323.781V99.5573H325.453V61.724H340.333V60.0469Z" fill="white"/>
<path d="M135.969 36.5365L142.016 50.4115L142.042 50.4688H143.875L126.792 11.1302L126.714 10.9531H125.359L108.208 50.3281L108.151 50.4635H109.979L116.057 36.5365H135.969ZM135.224 34.8594H116.729L126.031 13.5625L135.224 34.8594Z" fill="white"/>
<path d="M151.276 35.1666H165.276L175.094 50.4219L175.12 50.4635H177.12L167.24 35.125C168.537 34.9791 169.76 34.5885 170.901 33.9583C172.156 33.2708 173.234 32.3698 174.135 31.2604C175.052 30.1146 175.75 28.8489 176.214 27.4583C176.698 26.026 176.938 24.5469 176.938 23.0312C176.932 21.5104 176.651 20.0416 176.094 18.625C175.542 17.1979 174.771 15.9114 173.771 14.7552C172.766 13.5989 171.578 12.6823 170.208 12C168.786 11.2916 167.287 10.9427 165.698 10.9531H149.599V50.4635H151.276V35.1666ZM151.276 12.6302H165.703C167.005 12.625 168.24 12.9166 169.406 13.5052C170.573 14.0885 171.594 14.8646 172.464 15.8333C173.349 16.8125 174.031 17.9166 174.521 19.1458C175.016 20.3958 175.266 21.6875 175.266 23.0312C175.266 24.3541 175.052 25.6406 174.625 26.8854C174.208 28.1094 173.599 29.2187 172.786 30.2187C171.979 31.2031 171.016 31.9896 169.891 32.5885C168.698 33.2031 167.432 33.5052 166.089 33.4844H151.276V12.6302Z" fill="white"/>
<path d="M200.557 50.7395C205.688 50.7395 210.302 48.5676 214.276 44.2916V50.4635H215.948V31.3541H205.141V33.0312H214.276V41.8958C212.146 44.3749 209.932 46.2083 207.703 47.3333C205.464 48.4843 203.078 49.0572 200.557 49.0572C198.24 49.0728 196.037 48.5676 193.953 47.552C191.906 46.5468 190.109 45.1926 188.573 43.5051C187 41.776 185.787 39.8228 184.932 37.6458C184.047 35.4218 183.609 33.1093 183.615 30.7083C183.615 28.4114 183.99 26.177 184.74 24.0051C185.469 21.8437 186.557 19.8853 188 18.1197C189.432 16.3801 191.141 14.9843 193.135 13.9426C195.13 12.8906 197.396 12.3593 199.896 12.3593C202.859 12.3593 205.516 12.953 207.807 14.1353C210.099 15.3124 211.969 17.2603 213.427 19.9374L213.537 20.1458L215.13 19.6458L214.974 19.3385C214.359 18.0937 213.615 16.927 212.734 15.8489C211.833 14.7603 210.776 13.8437 209.573 13.1041C208.25 12.2968 206.839 11.6978 205.339 11.3124C203.552 10.8645 201.74 10.651 199.901 10.6718C197.344 10.651 194.922 11.2135 192.63 12.3541C190.432 13.4583 188.542 14.9583 186.958 16.8437C185.344 18.7916 184.104 20.9583 183.245 23.3385C182.38 25.7187 181.948 28.177 181.943 30.7083C181.948 33.2135 182.401 35.6301 183.297 37.9635C184.188 40.3385 185.464 42.4791 187.125 44.3905C188.792 46.302 190.755 47.8333 193.016 48.9843C195.385 50.1822 197.901 50.7655 200.557 50.7395Z" fill="white"/>
<path d="M250.198 48.7865H225.797V31.1094H246.755V29.4323H225.797V12.6302H249.708V10.9531H224.125V50.4635H250.198V48.7865Z" fill="white"/>
<path d="M371.073 97.8333H346.672V80.1563H367.63V78.4792H346.672V61.6771H370.583V60H345V99.5104H371.073V97.8333Z" fill="white"/>
<path d="M283.958 48.7865H259.557V10.9531H257.885V50.4635H283.958V48.7865Z" fill="white"/>
<path d="M142.412 70.9688C141.693 68.6406 140.547 66.5521 138.964 64.7031C137.349 62.8542 135.417 61.4427 133.172 60.4583C130.865 59.4219 128.135 58.9062 125.037 58.9062H112.276V98.4167H125.042C127.839 98.4167 130.417 97.9375 132.703 96.9948C134.948 96.0885 136.896 94.75 138.547 92.974C140.203 91.151 141.438 89.0677 142.245 86.7344C143.109 84.3229 143.547 81.5885 143.547 78.6042C143.563 76 143.188 73.4583 142.412 70.9688ZM125.042 96.7344H113.948V60.5729H125.042C127.724 60.5729 130.141 61.026 132.229 61.9219C134.271 62.776 136.031 64.0208 137.521 65.6615C138.995 67.3281 140.078 69.224 140.771 71.3438C141.531 73.7031 141.901 76.1198 141.875 78.599C141.896 81.0677 141.537 83.474 140.797 85.8281C140.125 87.9635 139.057 89.8802 137.599 91.5729C136.13 93.2292 134.375 94.4948 132.339 95.3646C130.25 96.2708 127.797 96.7344 125.042 96.7344Z" fill="white"/>
<path d="M176.76 60.5728V58.8958H151.177V98.4062H177.255V96.7343H152.849V79.052H173.807V77.3801H152.849V60.5728H176.76Z" fill="white"/>
</svg>
