<svg width="193" height="213" viewBox="0 0 193 213" fill="none" xmlns="http://www.w3.org/2000/svg">
<path d="M37.68 119V92.72H38.832V119H37.68ZM38.292 119V117.92H52.224V119H38.292ZM38.292 106.184V105.104H50.82V106.184H38.292ZM38.292 93.8V92.72H51.756V93.8H38.292ZM65.1623 119.504C62.8823 119.504 61.1663 118.784 60.0143 117.344C58.8623 115.88 58.2863 113.984 58.2863 111.656V100.28H59.4383V111.944C59.4383 113.84 59.9303 115.4 60.9143 116.624C61.8983 117.824 63.3503 118.424 65.2703 118.424C67.2383 118.424 68.7743 117.812 69.8783 116.588C70.9823 115.34 71.5343 113.744 71.5343 111.8V100.28H72.6863V119H71.7503V111.656H72.1823C72.1823 113.144 71.9183 114.488 71.3903 115.688C70.8863 116.864 70.1183 117.8 69.0863 118.496C68.0783 119.168 66.7943 119.504 65.2343 119.504H65.1623ZM80.5169 119V100.28H81.4529V108.308H81.0929C81.0929 105.596 81.6929 103.556 82.8929 102.188C84.1169 100.82 86.1689 100.136 89.0489 100.136H89.6609V101.216H88.7609C86.3849 101.216 84.6089 101.816 83.4329 103.016C82.2569 104.192 81.6689 105.956 81.6689 108.308V119H80.5169ZM102.147 119.576C100.611 119.576 99.243 119.3 98.043 118.748C96.867 118.172 95.871 117.416 95.055 116.48C94.263 115.544 93.651 114.5 93.219 113.348C92.811 112.172 92.607 110.972 92.607 109.748V109.532C92.607 108.284 92.823 107.072 93.255 105.896C93.687 104.72 94.311 103.676 95.127 102.764C95.943 101.828 96.939 101.084 98.115 100.532C99.291 99.98 100.635 99.704 102.147 99.704C103.659 99.704 105.003 99.98 106.179 100.532C107.355 101.084 108.351 101.828 109.167 102.764C109.983 103.676 110.607 104.72 111.039 105.896C111.471 107.072 111.687 108.284 111.687 109.532V109.748C111.687 110.972 111.471 112.172 111.039 113.348C110.631 114.5 110.019 115.544 109.203 116.48C108.411 117.416 107.415 118.172 106.215 118.748C105.039 119.3 103.683 119.576 102.147 119.576ZM102.147 118.496C103.971 118.496 105.495 118.076 106.719 117.236C107.967 116.396 108.915 115.304 109.563 113.96C110.211 112.616 110.535 111.176 110.535 109.64C110.535 108.056 110.199 106.592 109.527 105.248C108.879 103.904 107.931 102.824 106.683 102.008C105.435 101.192 103.923 100.784 102.147 100.784C100.395 100.784 98.883 101.192 97.611 102.008C96.363 102.824 95.403 103.904 94.731 105.248C94.083 106.592 93.759 108.056 93.759 109.64C93.759 111.176 94.083 112.616 94.731 113.96C95.379 115.304 96.327 116.396 97.575 117.236C98.823 118.076 100.347 118.496 102.147 118.496ZM117.818 126.2V100.28H118.754V108.2L118.178 108.596C118.178 106.964 118.526 105.476 119.222 104.132C119.942 102.788 120.95 101.72 122.246 100.928C123.566 100.112 125.126 99.704 126.926 99.704C128.366 99.704 129.65 99.98 130.778 100.532C131.906 101.084 132.854 101.828 133.622 102.764C134.39 103.7 134.966 104.756 135.35 105.932C135.758 107.084 135.962 108.284 135.962 109.532V109.748C135.962 110.924 135.77 112.088 135.386 113.24C135.002 114.392 134.426 115.448 133.658 116.408C132.914 117.368 131.978 118.136 130.85 118.712C129.722 119.288 128.414 119.576 126.926 119.576C125.102 119.576 123.542 119.156 122.246 118.316C120.95 117.452 119.954 116.348 119.258 115.004C118.586 113.636 118.25 112.196 118.25 110.684L118.97 113.024V126.2H117.818ZM126.854 118.496C128.582 118.496 130.034 118.076 131.21 117.236C132.41 116.372 133.31 115.268 133.91 113.924C134.51 112.556 134.81 111.128 134.81 109.64C134.81 108.056 134.498 106.592 133.874 105.248C133.25 103.904 132.338 102.824 131.138 102.008C129.962 101.192 128.534 100.784 126.854 100.784C125.27 100.784 123.878 101.132 122.678 101.828C121.502 102.524 120.578 103.472 119.906 104.672C119.234 105.848 118.898 107.18 118.898 108.668V110.612C118.898 112.004 119.222 113.3 119.87 114.5C120.518 115.7 121.43 116.672 122.606 117.416C123.806 118.136 125.222 118.496 126.854 118.496ZM149.564 119.576C148.004 119.576 146.648 119.3 145.496 118.748C144.344 118.196 143.396 117.452 142.652 116.516C141.908 115.556 141.344 114.488 140.96 113.312C140.6 112.112 140.42 110.888 140.42 109.64V109.424C140.42 108.2 140.6 107.012 140.96 105.86C141.344 104.708 141.908 103.664 142.652 102.728C143.42 101.792 144.356 101.06 145.46 100.532C146.588 99.98 147.884 99.704 149.348 99.704C151.172 99.704 152.72 100.124 153.992 100.964C155.288 101.804 156.272 102.896 156.944 104.24C157.64 105.56 157.988 106.964 157.988 108.452V109.604H141.032V108.524H157.376L156.908 108.884C156.908 107.372 156.608 106.004 156.008 104.78C155.408 103.556 154.544 102.584 153.416 101.864C152.288 101.144 150.932 100.784 149.348 100.784C147.62 100.784 146.168 101.192 144.992 102.008C143.84 102.824 142.964 103.892 142.364 105.212C141.788 106.532 141.5 107.972 141.5 109.532C141.5 111.116 141.788 112.592 142.364 113.96C142.964 115.304 143.852 116.396 145.028 117.236C146.228 118.076 147.74 118.496 149.564 118.496C151.532 118.496 153.116 118.04 154.316 117.128C155.516 116.192 156.26 115.064 156.548 113.744H157.7C157.46 114.872 156.98 115.88 156.26 116.768C155.54 117.632 154.616 118.316 153.488 118.82C152.384 119.324 151.076 119.576 149.564 119.576Z" fill="white"/>
<ellipse cx="96.5" cy="106.5" rx="106.5" ry="96.5" transform="rotate(90 96.5 106.5)" fill="url(#paint0_radial_242_6)"/>
<defs>
<radialGradient id="paint0_radial_242_6" cx="0" cy="0" r="1" gradientUnits="userSpaceOnUse" gradientTransform="translate(96.5 106.5) rotate(90) scale(96.5 124.371)">
<stop offset="0.922916" stop-opacity="0"/>
<stop offset="1" stop-color="white"/>
</radialGradient>
</defs>
</svg>
