<svg width="193" height="213" viewBox="0 0 193 213" fill="none" xmlns="http://www.w3.org/2000/svg">
<path d="M70.508 119.576C68.108 119.576 66.14 119.12 64.604 118.208C63.092 117.296 61.976 116.048 61.256 114.464C60.536 112.88 60.176 111.092 60.176 109.1V92.72H61.328V109.244C61.328 111.092 61.652 112.712 62.3 114.104C62.948 115.496 63.944 116.576 65.288 117.344C66.656 118.112 68.396 118.496 70.508 118.496C72.644 118.496 74.384 118.112 75.728 117.344C77.072 116.576 78.068 115.496 78.716 114.104C79.364 112.712 79.688 111.092 79.688 109.244V92.72H80.84V109.1C80.84 111.092 80.48 112.88 79.76 114.464C79.04 116.048 77.924 117.296 76.412 118.208C74.9 119.12 72.932 119.576 70.508 119.576ZM97.8559 119.576C95.5999 119.576 93.7399 119.228 92.2759 118.532C90.8119 117.836 89.7199 116.876 88.9999 115.652C88.3039 114.428 87.9559 113.048 87.9559 111.512H89.1079C89.1079 112.928 89.4199 114.164 90.0439 115.22C90.6919 116.252 91.6639 117.056 92.9599 117.632C94.2559 118.208 95.8879 118.496 97.8559 118.496C99.6799 118.496 101.216 118.244 102.464 117.74C103.736 117.212 104.696 116.48 105.344 115.544C105.992 114.608 106.316 113.504 106.316 112.232C106.316 110.624 105.752 109.256 104.624 108.128C103.52 106.976 101.792 106.292 99.4399 106.076L96.1999 105.788C94.0879 105.596 92.4199 104.924 91.1959 103.772C89.9959 102.596 89.3959 101.06 89.3959 99.164C89.3959 97.868 89.6839 96.692 90.2599 95.636C90.8599 94.556 91.7719 93.692 92.9959 93.044C94.2439 92.396 95.8279 92.072 97.7479 92.072C99.7399 92.072 101.372 92.432 102.644 93.152C103.94 93.872 104.9 94.82 105.524 95.996C106.148 97.172 106.46 98.456 106.46 99.848H105.308C105.308 98.648 105.044 97.544 104.516 96.536C104.012 95.504 103.196 94.688 102.068 94.088C100.964 93.464 99.5239 93.152 97.7479 93.152C96.0439 93.152 94.6639 93.428 93.6079 93.98C92.5519 94.508 91.7719 95.228 91.2679 96.14C90.7879 97.052 90.5479 98.06 90.5479 99.164C90.5479 100.82 91.0519 102.116 92.0599 103.052C93.0919 103.988 94.5319 104.54 96.3799 104.708L99.6199 104.996C101.348 105.14 102.788 105.56 103.94 106.256C105.116 106.928 105.992 107.78 106.568 108.812C107.168 109.844 107.468 110.984 107.468 112.232C107.468 113.624 107.096 114.884 106.352 116.012C105.632 117.116 104.564 117.992 103.148 118.64C101.732 119.264 99.9679 119.576 97.8559 119.576ZM111.864 119L121.98 92.72H124.788L135.264 119H134.076L123.816 93.26L124.752 93.8H121.944L122.88 93.26L113.016 119H111.864ZM116.112 109.64L116.508 108.56H130.404L130.836 109.64H116.112Z" fill="white"/>
<ellipse cx="96.5" cy="106.5" rx="106.5" ry="96.5" transform="rotate(90 96.5 106.5)" fill="url(#paint0_radial_242_5)"/>
<defs>
<radialGradient id="paint0_radial_242_5" cx="0" cy="0" r="1" gradientUnits="userSpaceOnUse" gradientTransform="translate(96.5 106.5) rotate(90) scale(96.5 124.371)">
<stop offset="0.922916" stop-opacity="0"/>
<stop offset="1" stop-color="white"/>
</radialGradient>
</defs>
</svg>
