<svg width="193" height="213" viewBox="0 0 193 213" fill="none" xmlns="http://www.w3.org/2000/svg">
<path d="M39.68 119V92.72H40.832V119H39.68ZM40.148 119V117.92H53.144V119H40.148ZM56.0237 119L66.1397 92.72H68.9477L79.4237 119H78.2357L67.9757 93.26L68.9117 93.8H66.1037L67.0397 93.26L57.1757 119H56.0237ZM60.2717 109.64L60.6677 108.56H74.5637L74.9957 109.64H60.2717ZM89.0889 119V93.224H90.2409V119H89.0889ZM80.4489 93.8V92.72H98.8809V93.8H80.4489ZM99.8987 119L110.015 92.72H112.823L123.299 119H122.111L111.851 93.26L112.787 93.8H109.979L110.915 93.26L101.051 119H99.8987ZM104.147 109.64L104.543 108.56H118.439L118.871 109.64H104.147ZM129.504 119V92.72H130.8L140.088 112.196H140.88L150.168 92.72H151.608V119H150.456V94.16H150.636L141.528 113.24H139.44L130.332 94.16H130.584V119H129.504Z" fill="white"/>
<ellipse cx="96.5" cy="106.5" rx="106.5" ry="96.5" transform="rotate(90 96.5 106.5)" fill="url(#paint0_radial_242_4)"/>
<defs>
<radialGradient id="paint0_radial_242_4" cx="0" cy="0" r="1" gradientUnits="userSpaceOnUse" gradientTransform="translate(96.5 106.5) rotate(90) scale(96.5 124.371)">
<stop offset="0.922916" stop-opacity="0"/>
<stop offset="1" stop-color="white"/>
</radialGradient>
</defs>
</svg>
